<?xml version="1.0" standalone="no"?>
<!DOCTYPE svg PUBLIC "-//W3C//DTD SVG 20010904//EN"
 "http://www.w3.org/TR/2001/REC-SVG-20010904/DTD/svg10.dtd">
<svg version="1.0" xmlns="http://www.w3.org/2000/svg"
 width="1000.000000pt" height="1000.000000pt" viewBox="0 0 1000.000000 1000.000000"
 preserveAspectRatio="xMidYMid meet">
<metadata>
Created by potrace 1.11, written by Peter Selinger 2001-2013
</metadata>
<g transform="translate(0.000000,1000.000000) scale(0.100000,-0.100000)"
fill="#000000" stroke="none">
<path d="M4966 8883 c-3 -4 -54 -7 -113 -9 -130 -3 -269 -12 -303 -19 -14 -3
-51 -8 -82 -11 -57 -6 -93 -11 -93 -14 0 -1 -14 -3 -32 -5 -18 -2 -58 -9 -90
-16 -32 -7 -65 -13 -73 -14 -24 -2 -159 -35 -234 -57 -38 -11 -76 -21 -85 -23
-38 -8 -304 -101 -358 -126 -24 -10 -45 -19 -48 -19 -30 0 -380 -179 -530
-272 -44 -27 -89 -55 -99 -61 -46 -28 -256 -179 -312 -223 -154 -125 -290
-249 -419 -385 -75 -79 -211 -237 -260 -304 -17 -22 -34 -44 -38 -50 -4 -5
-25 -35 -47 -65 -22 -30 -43 -59 -47 -65 -71 -88 -282 -464 -356 -635 -52
-118 -84 -200 -80 -200 3 0 1 -6 -4 -12 -6 -7 -18 -38 -28 -68 -10 -30 -22
-61 -28 -67 -5 -7 -7 -13 -3 -13 3 0 1 -12 -5 -27 -11 -27 -18 -51 -54 -175
-19 -65 -71 -298 -79 -353 -4 -22 -8 -47 -11 -55 -2 -8 -6 -37 -10 -65 -3 -27
-11 -81 -16 -120 -29 -202 -32 -720 -5 -915 7 -47 17 -128 21 -165 6 -47 45
-244 62 -310 8 -33 17 -69 19 -80 6 -29 45 -167 54 -190 4 -11 18 -51 30 -90
12 -38 44 -128 73 -200 28 -71 50 -133 49 -137 -1 -5 3 -8 8 -8 6 0 10 -5 10
-11 0 -14 103 -223 113 -227 4 -2 7 -10 7 -19 0 -8 8 -27 18 -41 10 -15 22
-34 25 -42 4 -8 16 -28 27 -45 11 -16 24 -39 29 -50 8 -19 110 -177 128 -200
4 -6 24 -33 43 -60 19 -28 38 -51 42 -53 4 -2 8 -10 8 -18 0 -8 4 -14 8 -14 4
0 15 -12 24 -27 9 -16 25 -37 35 -48 10 -11 29 -33 41 -50 127 -165 492 -523
625 -614 12 -8 24 -18 27 -21 4 -6 134 -101 186 -138 69 -47 190 -124 226
-143 24 -13 50 -29 58 -35 23 -18 284 -148 390 -194 150 -66 297 -119 455
-165 33 -9 67 -20 75 -23 8 -3 21 -6 28 -8 52 -10 210 -48 222 -52 8 -3 26 -6
40 -8 14 -1 25 -3 25 -4 0 -1 9 -3 20 -4 11 -2 40 -6 65 -11 54 -9 80 -13 140
-20 25 -2 61 -7 80 -10 64 -10 204 -18 317 -19 62 -1 113 -5 113 -9 0 -5 4 -5
10 -2 5 3 69 8 142 10 151 5 252 12 293 19 16 3 58 8 94 11 36 4 82 10 101 15
19 5 53 11 75 14 74 11 148 26 287 60 148 37 414 125 515 171 17 8 33 15 36
15 15 0 386 180 412 200 6 4 33 20 60 35 68 38 235 146 259 167 11 10 28 20
38 24 10 3 18 10 18 15 0 5 5 9 11 9 6 0 34 19 63 42 29 24 70 57 92 73 21 17
54 44 74 61 19 17 48 42 64 55 17 13 46 40 67 59 20 19 51 49 70 66 68 62 273
284 329 356 8 11 30 38 48 61 49 62 54 68 91 122 19 28 37 52 40 55 9 8 71
100 71 105 0 3 19 33 43 69 47 72 77 123 76 133 0 3 3 9 8 12 4 3 14 17 22 31
32 56 172 343 176 360 1 3 9 22 18 44 9 21 17 40 17 42 0 1 5 15 12 31 6 15
12 30 13 33 1 3 6 16 12 30 45 110 151 473 167 575 2 11 7 38 11 60 14 74 15
80 20 110 3 17 7 41 10 55 2 14 7 52 11 85 3 33 8 69 10 80 25 123 24 709 -1
875 -2 14 -7 50 -10 80 -3 30 -8 66 -10 80 -10 61 -16 96 -20 110 -2 8 -7 35
-10 60 -4 24 -11 52 -15 61 -5 9 -7 18 -5 21 2 2 0 20 -5 39 -5 19 -11 45 -14
59 -8 40 -75 269 -103 350 -72 210 -225 548 -307 678 -14 23 -26 44 -26 47 0
4 -13 26 -30 50 -16 24 -30 48 -30 53 0 6 -3 12 -7 14 -5 2 -25 30 -47 63 -51
78 -139 199 -148 203 -5 2 -8 8 -8 14 0 21 -202 251 -349 398 -159 158 -225
218 -341 309 -36 28 -75 59 -86 69 -12 9 -28 22 -37 27 -91 60 -223 152 -225
158 -2 4 -8 7 -13 7 -5 0 -33 16 -63 35 -30 19 -58 35 -62 35 -4 0 -15 6 -23
14 -23 20 -298 157 -421 208 -134 57 -301 120 -328 124 -8 1 -21 6 -30 10 -9
4 -26 9 -37 11 -11 2 -31 7 -45 13 -21 8 -102 29 -215 56 -16 4 -34 8 -40 10
-35 8 -80 17 -155 30 -19 3 -46 8 -60 11 -14 3 -36 7 -50 8 -14 2 -25 4 -25 5
0 1 -25 3 -55 5 -30 3 -66 7 -80 10 -39 8 -196 18 -297 19 -52 1 -93 5 -93 11
0 5 -5 4 -11 -2 -7 -7 -21 -8 -39 -3 -16 5 -31 6 -34 3z m183 -408 c113 -4
146 -6 276 -21 70 -8 275 -42 353 -59 421 -93 826 -264 1192 -504 113 -73 126
-83 155 -108 7 -7 18 -13 24 -13 6 0 11 -4 11 -8 0 -4 12 -15 28 -24 15 -9 42
-30 60 -47 18 -17 39 -34 46 -38 43 -24 300 -272 397 -383 90 -103 100 -115
142 -170 23 -30 45 -56 50 -58 4 -2 7 -8 7 -14 0 -5 6 -16 14 -23 22 -22 179
-262 220 -335 82 -147 136 -260 211 -435 13 -32 40 -102 75 -199 38 -106 99
-335 115 -431 2 -11 4 -20 5 -20 2 0 9 -34 16 -85 3 -25 8 -54 10 -65 3 -11 7
-40 9 -65 3 -25 7 -54 9 -65 19 -84 28 -570 13 -730 -8 -92 -17 -169 -23 -205
-3 -14 -7 -43 -10 -65 -8 -60 -12 -79 -18 -95 -3 -8 -7 -31 -10 -50 -3 -19 -8
-46 -12 -60 -3 -14 -7 -34 -9 -45 -3 -16 -31 -120 -60 -225 -12 -42 -77 -225
-108 -300 -37 -93 -148 -332 -157 -340 -3 -3 -19 -30 -34 -60 -16 -30 -34 -62
-42 -71 -8 -8 -14 -18 -14 -22 0 -20 -236 -361 -281 -407 -8 -8 -21 -24 -29
-36 -73 -105 -351 -380 -525 -519 -27 -22 -51 -43 -53 -47 -2 -5 -8 -8 -13 -8
-9 0 -21 -8 -54 -37 -55 -50 -310 -210 -454 -286 -52 -27 -102 -53 -110 -58
-14 -8 -69 -31 -81 -34 -3 0 -15 -6 -27 -13 -22 -12 -23 -11 -24 35 -2 109 0
155 5 160 2 3 1 16 -4 29 -5 13 -6 26 0 29 5 3 5 18 1 33 -5 15 -5 36 -1 47 4
11 5 24 3 28 -7 11 -7 147 0 153 3 4 2 17 -3 30 -5 13 -6 26 0 29 5 3 5 18 1
33 -5 15 -5 36 -1 47 4 11 4 32 -1 48 -4 15 -4 27 0 27 4 0 5 21 1 48 -3 26
-3 59 0 72 4 14 3 37 -1 53 -5 17 -4 27 3 27 7 0 6 5 -1 14 -7 8 -8 17 -3 20
5 3 6 26 2 50 -4 25 -4 50 0 56 4 6 4 31 0 55 -4 27 -3 45 3 45 5 0 4 6 -2 14
-7 8 -8 17 -3 20 5 3 6 27 2 53 -3 27 -3 60 0 73 4 14 3 37 -1 53 -5 17 -4 27
3 27 7 0 6 5 -1 14 -7 8 -8 17 -3 20 5 3 6 26 2 50 -4 25 -4 50 0 56 4 6 4 31
0 55 -4 27 -3 45 3 45 5 0 4 6 -2 14 -8 10 -9 16 -1 21 6 3 8 10 5 15 -4 7 -5
38 -4 140 0 14 -2 37 -4 52 -2 14 -1 32 4 39 4 7 4 22 -1 34 -5 12 -5 27 -1
33 4 7 5 34 1 60 -3 26 -3 59 0 72 4 14 3 37 -1 53 -5 17 -4 27 3 27 7 0 6 5
-1 14 -7 8 -8 17 -3 20 5 3 6 26 2 50 -4 25 -4 50 0 56 4 6 4 31 0 55 -4 27
-3 45 3 45 5 0 4 6 -2 14 -7 8 -8 17 -3 20 5 3 6 27 2 53 -3 27 -3 60 0 73 4
14 3 37 -1 53 -5 17 -4 27 3 27 7 0 6 5 -1 14 -7 8 -8 17 -3 20 5 3 6 26 2 50
-4 25 -4 50 0 56 4 6 4 31 0 55 -4 27 -3 45 3 45 5 0 4 6 -2 14 -7 8 -8 17 -3
20 5 3 6 27 2 53 -3 27 -3 60 0 73 4 14 3 37 -1 53 -5 17 -4 27 3 27 7 0 6 5
-1 14 -7 8 -8 17 -3 20 5 3 6 26 2 50 -4 25 -4 50 0 56 4 6 4 31 0 55 -4 27
-3 45 3 45 5 0 4 6 -2 14 -7 8 -8 17 -3 20 5 3 6 27 2 53 -3 27 -3 60 0 73 4
14 3 37 -1 53 -5 17 -4 27 3 27 7 0 6 5 -1 14 -7 8 -8 17 -3 20 5 3 6 26 2 50
-4 25 -4 50 0 56 4 6 4 31 0 55 -4 27 -3 45 3 45 5 0 4 6 -2 14 -7 8 -8 17 -3
20 5 3 6 27 2 53 -3 27 -3 60 0 73 4 14 3 37 -1 53 -5 17 -4 27 3 27 7 0 6 5
-1 14 -7 8 -8 17 -3 20 5 3 6 26 2 50 -4 25 -4 50 0 56 4 6 4 31 0 55 -4 27
-3 45 3 45 5 0 4 6 -2 14 -7 8 -8 17 -3 20 5 3 6 27 2 53 -3 27 -3 60 0 73 4
14 3 37 -1 53 -5 17 -4 27 3 27 7 0 6 5 -1 14 -7 8 -8 17 -3 20 5 3 6 26 2 50
-4 25 -4 50 0 56 4 6 4 31 0 55 -4 27 -3 45 3 45 5 0 4 6 -2 14 -7 8 -8 17 -3
20 5 3 6 27 2 53 -3 27 -3 60 0 73 4 14 3 37 -1 53 -5 17 -4 27 3 27 7 0 6 5
-1 14 -7 8 -8 17 -3 20 5 3 6 26 2 50 -4 25 -4 50 0 56 4 6 4 31 0 55 -4 27
-3 45 3 45 5 0 4 6 -2 14 -7 8 -8 17 -3 20 5 3 6 27 2 53 -3 27 -3 60 0 73 4
14 3 37 -1 53 -5 17 -4 27 3 27 7 0 6 5 -1 14 -7 8 -8 17 -3 20 5 3 6 27 2 54
-3 27 -3 60 1 74 4 14 3 31 -1 38 -4 7 -5 24 -1 39 9 31 -6 94 -20 86 -5 -4
-33 -8 -62 -10 -61 -5 -99 -11 -145 -24 -18 -5 -36 -10 -40 -10 -13 -2 -47
-12 -67 -21 -11 -5 -45 -20 -75 -33 -167 -74 -354 -252 -435 -416 -62 -124
-74 -156 -90 -240 -3 -19 -8 -38 -11 -42 -4 -8 -16 -167 -15 -196 1 -7 1 -19
2 -25 0 -7 -1 -29 -3 -49 -2 -20 -1 -45 3 -55 3 -11 3 -29 -2 -41 -5 -15 -5
-23 2 -23 6 0 6 -6 1 -17 -5 -10 -6 -27 -2 -38 4 -11 4 -29 0 -40 -4 -11 -4
-29 0 -40 4 -11 4 -34 -1 -52 -4 -18 -3 -33 1 -33 5 0 5 -12 1 -27 -7 -30 -6
-91 3 -100 2 -3 1 -16 -4 -29 -6 -16 -6 -24 1 -24 6 0 6 -6 0 -18 -5 -10 -6
-24 -1 -31 4 -8 5 -25 1 -40 -6 -26 -6 -39 2 -113 2 -21 0 -38 -4 -38 -3 0 -3
-15 0 -32 4 -18 4 -47 1 -63 -4 -17 -4 -39 0 -50 4 -11 4 -32 -1 -47 -4 -16
-4 -28 1 -28 4 0 4 -16 0 -34 -4 -19 -6 -37 -3 -40 3 -2 4 -37 4 -78 -2 -73
-1 -93 0 -125 1 -10 1 -31 0 -48 -1 -38 -2 -145 -2 -165 4 -72 1 -223 -3 -227
-3 -3 -1 -13 4 -22 5 -10 5 -33 0 -54 -4 -21 -4 -39 0 -42 5 -3 5 -18 0 -34
-4 -16 -6 -32 -3 -34 7 -7 9 -186 2 -182 -3 2 -4 -11 -2 -28 5 -41 5 -47 3
-77 -1 -14 0 -34 3 -45 2 -11 1 -33 -3 -50 -4 -17 -3 -41 1 -53 5 -14 4 -22
-3 -22 -7 0 -7 -4 -1 -12 5 -7 8 -24 7 -38 -3 -25 -4 -49 -4 -122 0 -21 -1
-44 -2 -51 -1 -7 2 -25 6 -40 4 -16 2 -27 -3 -27 -6 0 -8 -6 -6 -12 8 -21 11
-128 4 -128 -3 0 -3 -21 1 -47 5 -27 4 -49 -1 -51 -4 -2 -6 -9 -3 -15 7 -19
10 -227 3 -227 -5 0 -4 -36 1 -50 5 -12 5 -38 -1 -71 -3 -21 -2 -44 3 -52 5
-10 4 -18 -2 -22 -8 -5 -8 -11 0 -20 7 -8 9 -19 5 -26 -7 -11 -8 -139 -1 -146
2 -2 21 -7 42 -10 66 -10 131 -60 164 -126 l29 -58 1 -232 c1 -128 1 -238 1
-244 0 -7 0 -38 0 -68 0 -53 0 -65 -2 -102 -1 -10 -1 -31 0 -48 1 -16 2 -56 2
-87 0 -56 0 -68 -2 -105 -1 -10 -1 -31 0 -48 1 -16 2 -56 2 -87 0 -56 0 -68
-2 -105 -1 -10 -1 -31 0 -48 6 -113 1 -205 -11 -206 -14 -1 -35 -4 -88 -15
-19 -4 -51 -8 -70 -10 -19 -1 -35 -3 -35 -5 0 -1 -9 -3 -20 -4 -46 -6 -143
-18 -175 -21 -57 -7 -482 -12 -522 -7 -34 5 -36 8 -40 43 -2 21 0 51 3 68 3
17 3 36 -1 42 -4 7 -5 24 -1 38 4 14 4 47 1 74 -4 31 -3 48 4 49 7 0 6 3 -1 5
-8 4 -9 13 -4 27 5 12 5 31 1 42 -4 11 -4 31 0 44 3 13 3 46 0 73 -4 31 -3 48
4 49 7 0 6 3 -1 5 -8 4 -9 13 -4 27 5 12 5 31 1 42 -4 11 -4 31 -1 45 4 14 6
34 5 45 -4 31 -6 121 -5 215 2 80 -1 165 -5 172 -3 4 1 8 8 9 9 0 10 2 1 5 -8
4 -9 13 -4 27 5 12 5 31 1 42 -4 11 -4 31 0 44 3 13 3 46 0 71 -3 26 -3 56 1
66 3 11 3 29 -2 42 -6 15 -5 22 4 23 9 0 9 2 0 5 -8 4 -9 13 -4 27 5 12 5 31
1 42 -4 11 -4 31 0 44 3 13 3 46 0 73 -4 27 -3 51 1 54 5 3 4 15 -1 28 -5 13
-6 26 -3 30 3 3 5 36 4 73 -2 66 -2 79 0 106 0 11 0 101 -1 140 0 34 0 53 0
105 0 30 -2 58 -6 63 -3 5 1 9 8 10 9 0 10 2 1 5 -8 4 -9 13 -4 27 5 12 5 31
1 42 -4 11 -4 31 0 44 3 13 3 46 0 73 -4 31 -3 48 4 49 7 0 6 3 -1 5 -8 4 -9
13 -4 27 5 12 5 31 1 42 -4 11 -4 31 -1 45 4 14 6 34 5 45 -4 31 -6 115 -5
215 1 8 1 46 2 83 0 38 -2 71 -5 74 -3 3 -1 15 5 26 8 14 8 18 0 13 -6 -4 -9
-2 -6 6 3 8 35 19 73 26 37 6 85 19 107 28 22 10 42 18 45 19 17 2 105 72 140
112 41 47 96 147 103 188 1 11 5 25 8 30 3 6 7 52 7 104 1 52 4 96 7 99 2 3 0
12 -5 21 -5 10 -5 23 0 31 5 8 5 21 0 30 -5 9 -5 22 -1 29 5 7 5 30 1 51 -4
21 -4 44 1 51 4 7 4 20 0 28 -4 9 -5 30 -1 46 3 17 3 39 -1 51 -4 11 -3 27 1
34 5 8 5 21 0 30 -5 9 -5 22 -1 29 5 7 5 30 1 51 -4 21 -4 44 1 51 4 7 4 20 0
28 -4 9 -5 30 -1 46 3 17 3 39 -1 51 -4 11 -3 27 1 34 5 8 5 21 0 30 -5 9 -5
22 -1 29 5 7 5 30 1 51 -4 21 -4 44 1 51 4 7 4 20 0 28 -4 9 -5 30 -1 46 3 17
3 39 -1 51 -4 11 -3 27 1 34 5 8 5 21 0 30 -5 9 -5 22 -1 29 5 7 5 30 1 51 -4
21 -4 44 1 51 4 7 4 20 0 28 -4 9 -5 30 -1 46 3 17 3 39 -1 51 -4 11 -3 27 1
34 5 8 5 21 0 30 -5 9 -5 22 -1 29 5 7 5 30 1 51 -4 21 -4 44 1 51 4 7 4 20 0
28 -4 9 -5 30 -1 46 3 17 3 39 -1 51 -4 11 -3 27 1 34 5 8 5 21 0 30 -5 9 -5
22 -1 29 5 7 5 30 1 51 -4 21 -4 44 1 51 4 7 4 20 0 28 -4 9 -5 30 -1 46 3 17
3 39 -1 51 -4 11 -3 27 1 34 5 8 5 21 0 30 -5 9 -5 22 -1 29 5 7 5 30 1 51 -4
21 -4 44 1 51 4 7 4 20 0 28 -4 9 -5 30 -1 46 3 17 3 39 -1 51 -4 11 -3 27 1
34 5 8 5 21 0 30 -5 9 -5 22 -1 29 5 7 4 36 -1 64 -13 71 -48 107 -112 112
-42 3 -51 0 -83 -29 -21 -19 -37 -44 -39 -61 -2 -17 -4 -524 -4 -1128 l-1
-1098 -34 -37 c-30 -33 -39 -37 -84 -37 -41 0 -55 5 -78 27 -32 31 -52 90 -43
128 3 13 3 46 0 72 -4 31 -3 48 4 49 7 0 6 3 -1 5 -8 4 -9 13 -4 27 5 12 5 31
1 42 -4 11 -4 32 1 47 4 15 4 30 -1 33 -4 3 -4 20 0 39 4 19 4 39 0 46 -4 7
-5 24 -1 38 4 14 4 47 1 74 -4 31 -3 48 4 49 7 0 6 3 -1 5 -8 4 -9 13 -4 27 5
12 5 31 1 42 -4 11 -4 31 0 44 3 13 3 46 0 73 -4 31 -3 48 4 49 7 0 6 3 -1 5
-8 4 -9 13 -4 27 5 12 5 31 1 42 -4 11 -4 32 1 47 4 15 4 30 -1 33 -4 3 -4 20
0 39 4 19 4 39 0 46 -4 7 -5 24 -1 38 4 14 4 47 1 74 -4 31 -3 48 4 49 7 0 6
3 -1 5 -8 4 -9 13 -4 27 5 12 5 31 1 42 -4 11 -4 31 0 44 3 13 3 46 0 73 -4
31 -3 48 4 49 7 0 6 3 -1 5 -8 4 -9 13 -4 27 5 12 5 31 1 42 -4 11 -4 32 1 47
4 15 4 30 -1 33 -4 3 -4 20 0 39 4 19 4 39 0 46 -4 7 -5 24 -1 38 4 14 4 47 1
74 -4 31 -3 48 4 49 7 0 6 3 -1 5 -8 4 -9 13 -4 27 5 12 5 31 1 42 -4 11 -4
31 0 44 3 13 3 46 0 73 -4 31 -3 48 4 48 8 0 7 3 0 8 -6 4 -8 16 -4 26 11 31
-11 103 -40 131 -20 19 -41 27 -74 30 -42 3 -51 0 -84 -29 -29 -27 -37 -42
-39 -77 -1 -24 -4 -58 -6 -75 -2 -18 0 -40 4 -50 3 -11 3 -29 -2 -41 -5 -15
-5 -23 2 -23 6 0 6 -6 1 -17 -5 -10 -6 -27 -2 -38 4 -11 4 -29 1 -40 -8 -22
-6 -84 3 -92 2 -3 1 -16 -4 -29 -6 -16 -6 -24 1 -24 6 0 7 -6 0 -17 -5 -9 -6
-26 -1 -37 4 -12 4 -30 0 -41 -4 -11 -4 -30 1 -42 5 -15 5 -23 -2 -23 -6 0 -8
-4 -5 -9 7 -10 8 -71 3 -117 -1 -18 0 -40 4 -50 3 -11 3 -29 -2 -41 -5 -15 -5
-23 2 -23 6 0 6 -6 1 -17 -5 -10 -6 -27 -2 -38 4 -11 4 -29 1 -40 -8 -22 -6
-84 3 -92 2 -3 1 -16 -4 -29 -6 -16 -6 -24 1 -24 6 0 7 -6 0 -17 -5 -9 -6 -26
-1 -37 4 -12 4 -30 0 -41 -4 -11 -4 -30 1 -42 5 -15 5 -23 -2 -23 -6 0 -8 -4
-5 -9 7 -10 8 -71 3 -117 -1 -18 0 -40 4 -50 3 -11 3 -29 -2 -41 -5 -15 -5
-23 2 -23 6 0 6 -6 1 -17 -5 -10 -6 -27 -2 -38 4 -11 4 -29 1 -40 -8 -22 -6
-84 3 -92 2 -3 1 -16 -4 -29 -6 -16 -6 -24 1 -24 6 0 7 -6 0 -17 -5 -9 -6 -26
-1 -37 4 -12 4 -30 0 -41 -4 -11 -4 -30 1 -42 5 -15 5 -23 -2 -23 -6 0 -8 -4
-5 -9 7 -10 8 -71 3 -117 -1 -18 0 -40 4 -50 3 -11 3 -29 -2 -41 -5 -15 -5
-23 2 -23 6 0 7 -5 4 -11 -4 -5 -8 -30 -9 -55 -2 -35 -9 -51 -34 -77 -28 -27
-39 -32 -82 -32 -43 0 -54 5 -82 33 l-33 32 -2 1093 c-1 600 -4 1110 -8 1133
-8 58 -48 94 -110 99 -45 4 -51 1 -85 -33 -34 -34 -37 -42 -39 -101 -1 -35 -3
-542 -4 -1127 l-2 -1064 -33 -32 c-28 -28 -39 -33 -82 -33 -40 0 -54 5 -79 29
-17 17 -31 37 -31 46 0 9 -4 20 -9 25 -5 6 -6 26 -2 45 4 19 4 54 1 77 -4 23
-3 48 1 55 4 7 3 18 -3 25 -7 9 -7 13 1 13 7 0 8 8 3 23 -5 12 -6 36 -2 52 3
17 3 49 -1 72 -3 23 -2 48 2 55 4 7 3 18 -3 25 -7 9 -7 13 1 13 7 0 8 8 3 23
-5 12 -6 36 -2 52 3 17 3 49 -1 72 -3 23 -2 48 2 55 4 7 3 18 -3 25 -7 9 -7
13 1 13 7 0 8 8 3 23 -5 12 -6 36 -2 52 3 17 3 49 -1 72 -3 23 -2 48 2 55 4 7
3 18 -3 25 -7 9 -7 13 1 13 7 0 8 8 3 23 -5 12 -6 36 -2 52 3 17 3 49 -1 72
-3 23 -2 48 2 55 4 7 3 18 -3 25 -7 9 -7 13 1 13 7 0 8 8 3 23 -5 12 -6 36 -2
52 3 17 3 49 -1 72 -3 23 -2 48 2 55 4 7 3 18 -3 25 -7 9 -7 13 1 13 7 0 8 8
3 23 -5 12 -6 36 -2 52 3 17 3 49 -1 72 -3 23 -2 48 2 55 4 7 3 18 -3 25 -7 9
-7 13 1 13 7 0 8 8 3 23 -5 12 -6 36 -2 52 3 17 3 49 -1 72 -3 23 -2 48 2 55
4 7 3 18 -3 25 -7 9 -7 13 1 13 7 0 8 8 3 23 -5 12 -6 36 -2 52 3 17 3 49 -1
72 -3 23 -2 48 2 55 4 7 3 18 -3 25 -6 8 -7 13 -1 13 7 0 7 17 0 49 -13 67
-49 101 -111 106 -42 3 -51 0 -84 -29 -30 -28 -36 -41 -39 -82 -2 -27 -5 -60
-6 -74 -1 -14 1 -40 4 -57 5 -22 3 -33 -5 -34 -8 0 -8 -2 1 -5 7 -4 9 -14 3
-33 -4 -16 -4 -34 0 -41 5 -7 5 -23 1 -34 -7 -22 -5 -90 3 -113 3 -7 0 -13 -7
-14 -9 0 -9 -2 0 -5 7 -4 9 -14 3 -33 -4 -16 -4 -34 0 -42 5 -7 6 -17 3 -22
-3 -5 -5 -31 -4 -58 1 -27 1 -57 1 -66 0 -10 0 -47 1 -83 0 -36 0 -71 -1 -77
0 -7 0 -20 0 -28 -1 -8 0 -40 0 -70 1 -30 -1 -59 -4 -64 -4 -5 -2 -12 3 -16 6
-3 7 -15 3 -28 -8 -23 -7 -91 2 -114 3 -7 0 -13 -7 -14 -9 0 -9 -2 0 -5 7 -4
9 -14 3 -33 -4 -16 -4 -34 0 -41 5 -7 5 -23 1 -34 -7 -22 -5 -90 3 -113 3 -7
0 -13 -7 -14 -9 0 -9 -2 0 -5 7 -4 9 -14 3 -33 -4 -16 -4 -34 0 -42 5 -7 6
-17 3 -22 -3 -5 -5 -31 -4 -58 1 -27 1 -57 1 -66 0 -10 0 -47 1 -83 0 -36 0
-71 -1 -77 0 -7 0 -20 0 -28 -1 -8 0 -40 0 -70 1 -30 -1 -59 -4 -64 -4 -5 -2
-12 3 -16 6 -3 7 -15 3 -28 -8 -23 -7 -91 2 -114 3 -7 0 -13 -7 -14 -9 0 -9
-2 0 -5 7 -4 9 -14 3 -33 -4 -16 -4 -34 0 -41 5 -7 5 -23 1 -34 -7 -22 -5 -90
3 -113 3 -7 0 -13 -7 -14 -9 0 -9 -2 0 -5 7 -4 9 -14 3 -33 -4 -16 -4 -34 0
-41 5 -7 5 -23 2 -34 -8 -23 -7 -54 2 -136 8 -66 21 -110 51 -170 20 -39 32
-57 73 -105 71 -84 207 -145 339 -154 10 -1 12 -324 12 -1476 0 -811 -3 -1475
-8 -1475 -4 0 -11 3 -15 7 -3 4 -12 8 -19 9 -30 6 -53 11 -67 17 -14 5 -89 30
-100 32 -3 1 -14 5 -25 9 -11 4 -33 12 -50 18 -38 13 -59 21 -117 47 -26 12
-50 21 -52 21 -3 0 -49 21 -103 46 -54 26 -100 46 -103 46 -3 0 -17 9 -32 19
-14 10 -28 19 -31 19 -4 0 -202 112 -256 145 -36 23 -77 50 -87 60 -6 5 -32
23 -57 39 -26 17 -47 34 -47 38 0 4 -6 8 -14 8 -8 0 -16 3 -18 8 -1 4 -28 26
-58 49 -173 133 -400 353 -544 528 -81 98 -79 96 -149 193 -185 256 -319 500
-429 777 -46 115 -88 230 -93 255 -1 3 -7 25 -15 50 -7 25 -14 50 -16 55 -1 6
-11 44 -22 85 -11 41 -23 89 -26 105 -3 17 -10 50 -16 74 -6 24 -8 46 -6 49 3
2 1 12 -3 21 -5 9 -11 39 -15 66 -3 28 -8 64 -11 80 -36 220 -40 658 -10 915
15 123 21 165 25 165 1 0 3 11 4 25 5 47 18 115 32 175 8 33 17 71 20 85 6 31
10 44 74 245 27 88 57 172 65 188 7 15 11 27 8 27 -3 0 2 11 11 25 9 13 16 29
16 34 0 5 19 49 42 98 23 48 43 90 43 93 1 5 18 38 70 135 49 92 108 190 116
193 5 2 9 8 9 13 0 8 61 104 92 144 4 6 37 51 74 100 37 50 70 92 74 95 3 3
13 14 21 26 45 66 285 315 394 409 32 28 70 60 84 73 26 23 241 185 277 210
63 41 171 109 184 115 8 4 38 21 65 37 97 58 311 162 446 216 220 88 569 184
759 208 19 3 51 8 71 11 98 16 267 29 391 29 65 1 118 5 118 9 0 5 4 6 9 2 6
-3 64 -7 130 -10z"/>
</g>
</svg>
